<mxfile host="app.diagrams.net" modified="2023-09-06T07:12:29.768Z" agent="Mozilla/5.0 (Windows NT 10.0; Win64; x64) AppleWebKit/537.36 (KHTML, like Gecko) Chrome/115.0.0.0 Safari/537.36" etag="NB5oMCmZxdi0y6UgNC3F" version="21.7.2" type="github">
  <diagram name="第 1 页" id="wdGzCQ0p7rjayYN5oCnl">
    <mxGraphModel dx="792" dy="1100" grid="1" gridSize="10" guides="1" tooltips="1" connect="1" arrows="1" fold="1" page="1" pageScale="1" pageWidth="827" pageHeight="1169" math="0" shadow="0">
      <root>
        <mxCell id="0" />
        <mxCell id="1" parent="0" />
        <mxCell id="VHLGJNi6p6aET78OUR2x-3" value="入口" style="rounded=1;whiteSpace=wrap;html=1;" vertex="1" parent="1">
          <mxGeometry x="340" y="20" width="120" height="60" as="geometry" />
        </mxCell>
        <mxCell id="VHLGJNi6p6aET78OUR2x-9" style="edgeStyle=orthogonalEdgeStyle;rounded=0;orthogonalLoop=1;jettySize=auto;html=1;exitX=0.5;exitY=1;exitDx=0;exitDy=0;" edge="1" parent="1" source="VHLGJNi6p6aET78OUR2x-3" target="VHLGJNi6p6aET78OUR2x-5">
          <mxGeometry relative="1" as="geometry" />
        </mxCell>
        <mxCell id="VHLGJNi6p6aET78OUR2x-13" style="edgeStyle=orthogonalEdgeStyle;rounded=0;orthogonalLoop=1;jettySize=auto;html=1;exitX=0.5;exitY=1;exitDx=0;exitDy=0;entryX=0.5;entryY=0;entryDx=0;entryDy=0;" edge="1" parent="1" source="VHLGJNi6p6aET78OUR2x-5" target="VHLGJNi6p6aET78OUR2x-11">
          <mxGeometry relative="1" as="geometry" />
        </mxCell>
        <mxCell id="VHLGJNi6p6aET78OUR2x-14" style="edgeStyle=orthogonalEdgeStyle;rounded=0;orthogonalLoop=1;jettySize=auto;html=1;exitX=0;exitY=0.5;exitDx=0;exitDy=0;entryX=0.5;entryY=0;entryDx=0;entryDy=0;" edge="1" parent="1" source="VHLGJNi6p6aET78OUR2x-5" target="VHLGJNi6p6aET78OUR2x-10">
          <mxGeometry relative="1" as="geometry" />
        </mxCell>
        <mxCell id="VHLGJNi6p6aET78OUR2x-16" style="edgeStyle=orthogonalEdgeStyle;rounded=0;orthogonalLoop=1;jettySize=auto;html=1;exitX=1;exitY=0.5;exitDx=0;exitDy=0;entryX=0.5;entryY=0;entryDx=0;entryDy=0;" edge="1" parent="1" source="VHLGJNi6p6aET78OUR2x-5" target="VHLGJNi6p6aET78OUR2x-12">
          <mxGeometry relative="1" as="geometry" />
        </mxCell>
        <mxCell id="VHLGJNi6p6aET78OUR2x-5" value="选择行为" style="rounded=0;whiteSpace=wrap;html=1;fillColor=#dae8fc;strokeColor=#6c8ebf;" vertex="1" parent="1">
          <mxGeometry x="340" y="120" width="120" height="60" as="geometry" />
        </mxCell>
        <mxCell id="VHLGJNi6p6aET78OUR2x-10" value="吃饭" style="rounded=0;whiteSpace=wrap;html=1;fillColor=#d5e8d4;strokeColor=#82b366;" vertex="1" parent="1">
          <mxGeometry x="150" y="230" width="120" height="60" as="geometry" />
        </mxCell>
        <mxCell id="VHLGJNi6p6aET78OUR2x-11" value="睡觉" style="rounded=0;whiteSpace=wrap;html=1;fillColor=#d5e8d4;strokeColor=#82b366;" vertex="1" parent="1">
          <mxGeometry x="340" y="230" width="120" height="60" as="geometry" />
        </mxCell>
        <mxCell id="VHLGJNi6p6aET78OUR2x-20" style="edgeStyle=orthogonalEdgeStyle;rounded=0;orthogonalLoop=1;jettySize=auto;html=1;exitX=0;exitY=0.5;exitDx=0;exitDy=0;entryX=0.5;entryY=0;entryDx=0;entryDy=0;" edge="1" parent="1" source="VHLGJNi6p6aET78OUR2x-12" target="VHLGJNi6p6aET78OUR2x-17">
          <mxGeometry relative="1" as="geometry" />
        </mxCell>
        <mxCell id="VHLGJNi6p6aET78OUR2x-21" style="edgeStyle=orthogonalEdgeStyle;rounded=0;orthogonalLoop=1;jettySize=auto;html=1;exitX=1;exitY=0.5;exitDx=0;exitDy=0;entryX=0.5;entryY=0;entryDx=0;entryDy=0;" edge="1" parent="1" source="VHLGJNi6p6aET78OUR2x-12" target="VHLGJNi6p6aET78OUR2x-18">
          <mxGeometry relative="1" as="geometry" />
        </mxCell>
        <mxCell id="VHLGJNi6p6aET78OUR2x-12" value="顺序执行行为" style="rounded=0;whiteSpace=wrap;html=1;fillColor=#dae8fc;strokeColor=#6c8ebf;" vertex="1" parent="1">
          <mxGeometry x="530" y="230" width="120" height="60" as="geometry" />
        </mxCell>
        <mxCell id="VHLGJNi6p6aET78OUR2x-17" value="打Tom" style="rounded=0;whiteSpace=wrap;html=1;fillColor=#d5e8d4;strokeColor=#82b366;" vertex="1" parent="1">
          <mxGeometry x="450" y="320" width="120" height="60" as="geometry" />
        </mxCell>
        <mxCell id="VHLGJNi6p6aET78OUR2x-18" value="打Jerry" style="rounded=0;whiteSpace=wrap;html=1;fillColor=#d5e8d4;strokeColor=#82b366;" vertex="1" parent="1">
          <mxGeometry x="610" y="320" width="120" height="60" as="geometry" />
        </mxCell>
      </root>
    </mxGraphModel>
  </diagram>
</mxfile>
